# xmcd
#
# Track frame offsets:
#	150
#	12025
#	35250
#	55342
#	70652
#	86825
#	100330
#	116582
#	131277
#	149867
#	170935
#	193887
#
# Disc length: 3038 seconds
#
# Revision: 1
# Processed by: cddbd v1.4PL0 Copyright (c) Steve Scherf et al.
# Submitted via: audiograbber 1.81.02
#
DISCID=af0bdc0c
DTITLE=History Makers - The Best Of Gospel (www.gerth.de)
DYEAR=2003
DGENRE=Gospel
TTITLE0=People Get Ready - Impressions
TTITLE1=Oh, Happy Day - Edwin Hawkins
TTITLE2=I ll Take You There - The Staple Singers
TTITLE3=Through It All - Andraé Crouch and The Disciples
TTITLE4=Mighty High - Mighty Clouds Of Joy
TTITLE5=Hallelujah Song - Bili Thedford
TTITLE6=My Tribute (To God Be The Glory) - Danniebelle Hall
TTITLE7=The Lord Will Make A Way - Al Green
TTITLE8=Tomorrow - The Winans
TTITLE9=I.O.U. Me - BeBe and CeCe Winans
TTITLE10=Ordinary Just Wont Do It
TTITLE11=Changed - Tramaine Hawkins
EXTD=
EXTT0=
EXTT1=
EXTT2=
EXTT3=
EXTT4=
EXTT5=
EXTT6=
EXTT7=
EXTT8=
EXTT9=
EXTT10=
EXTT11=
PLAYORDER=
